<svg width="520" height="480" viewBox="0 0 520 480" fill="none" xmlns="http://www.w3.org/2000/svg">
<g clip-path="url(#clip0_23068_1846)">
<path d="M260 480C371.366 480 461.646 473.663 461.646 465.845C461.646 458.027 371.366 451.69 260 451.69C148.634 451.69 58.3545 458.027 58.3545 465.845C58.3545 473.663 148.634 480 260 480Z" fill="#F5F5F5"/>
<path d="M247.936 353.629H47.1225C45.5484 353.626 44.0395 352.872 42.9264 351.534C41.8134 350.196 41.1868 348.382 41.1841 346.489V7.07758C41.2005 5.19579 41.8331 3.39759 42.9447 2.07275C44.0563 0.747909 45.5573 0.00318652 47.1225 0H247.936C249.509 0.00331262 251.017 0.757035 252.128 2.09571C253.24 3.43438 253.864 5.2486 253.864 7.14011V346.489C253.864 348.38 253.24 350.195 252.128 351.533C251.017 352.872 249.509 353.626 247.936 353.629ZM47.1225 0.250092C45.6173 0.253398 44.1746 0.97378 43.1103 2.25347C42.046 3.53315 41.4468 5.26783 41.4441 7.07758V346.489C41.4468 348.299 42.046 350.033 43.1103 351.313C44.1746 352.593 45.6173 353.313 47.1225 353.316H247.936C249.44 353.313 250.882 352.592 251.945 351.312C253.007 350.032 253.604 348.297 253.604 346.489V7.07758C253.604 5.26898 253.007 3.53428 251.945 2.25424C250.882 0.974191 249.44 0.253405 247.936 0.250092H47.1225Z" fill="#E6E6E6"/>
<path d="M472.888 353.629H272.064C270.491 353.626 268.983 352.872 267.872 351.533C266.76 350.195 266.136 348.38 266.136 346.489V7.07758C266.15 5.19693 266.78 3.39872 267.89 2.07353C269 0.74835 270.5 0.00322166 272.064 0H472.888C474.452 0.00322166 475.952 0.74835 477.062 2.07353C478.172 3.39872 478.802 5.19693 478.816 7.07758V346.489C478.816 348.38 478.192 350.195 477.08 351.533C475.969 352.872 474.461 353.626 472.888 353.629ZM272.064 0.250092C270.56 0.253405 269.118 0.974191 268.055 2.25424C266.993 3.53428 266.396 5.26898 266.396 7.07758V346.489C266.396 348.297 266.993 350.032 268.055 351.312C269.118 352.592 270.56 353.313 272.064 353.316H472.888C474.394 353.313 475.838 352.593 476.904 351.314C477.97 350.034 478.571 348.3 478.577 346.489V7.07758C478.571 5.26669 477.97 3.53203 476.904 2.2527C475.838 0.973367 474.394 0.253385 472.888 0.250092H272.064Z" fill="#E6E6E6"/>
<path d="M89.3777 417.002H46.5193V417.315H89.3777V417.002Z" fill="#E0E0E0"/>
<path d="M176.738 414.501H133.754V414.814H176.738V414.501Z" fill="#E0E0E0"/>
<path d="M232.669 414.501H222.269V414.814H232.669V414.501Z" fill="#E0E0E0"/>
<path d="M128.721 425.18H80.6208V425.493H128.721V425.18Z" fill="#E0E0E0"/>
<path d="M295.089 416.84H272.625V417.152H295.089V416.84Z" fill="#E0E0E0"/>
<path d="M333.393 416.84H304.346V417.152H333.393V416.84Z" fill="#E0E0E0"/>
<path d="M473.481 422.129H408.543V422.442H473.481V422.129Z" fill="#E0E0E0"/>
<path d="M520 404.735H0V405.048H520V404.735Z" fill="#EBEBEB"/>
<path opacity="0.8" d="M348.223 25.947L345.634 68.8126C345.546 70.2652 345.034 71.6337 344.188 72.6765C343.706 73.2944 343.125 73.7882 342.479 74.1278C341.834 74.4675 341.138 74.6459 340.434 74.6522H311.844C311.219 74.6599 310.6 74.5109 310.026 74.2148C309.452 73.9187 308.936 73.482 308.51 72.9325C308.085 72.383 307.759 71.7328 307.554 71.0234C307.349 70.314 307.269 69.5611 307.32 68.8126L309.92 25.947C310.026 24.3697 310.618 22.8969 311.58 21.8168C312.542 20.7367 313.804 20.1271 315.12 20.1073H343.71C344.335 20.0956 344.955 20.2419 345.53 20.5369C346.105 20.8318 346.622 21.2687 347.047 21.8193C347.473 22.3699 347.797 23.0218 348 23.7329C348.203 24.444 348.279 25.1983 348.223 25.947Z" fill="#E0E0E0"/>
<path d="M335.62 47.2638C336.704 41.0314 334.179 35.1225 329.98 34.0657C325.78 33.009 321.496 37.2047 320.411 43.4371C319.327 49.6695 321.852 55.5784 326.051 56.6352C330.251 57.6919 334.535 53.4962 335.62 47.2638Z" fill="white"/>
<path d="M339.435 71.7011H313.269C311.605 71.7011 310.461 70.7383 310.419 69.4003C310.357 67.4496 318.843 59.009 326.893 59.7468H327.08C332.025 59.9574 336.768 62.1593 340.548 65.9991C344.438 69.6754 340.766 71.7011 339.435 71.7011Z" fill="white"/>
<path d="M200.72 73.0891C197.986 73.0762 195.353 71.8418 193.333 69.6257C191.313 67.4097 190.05 64.3701 189.79 61.0973C189.668 59.5429 189.818 57.9753 190.227 56.494C190.637 55.0127 191.299 53.6501 192.17 52.4929C193.042 51.3356 194.104 50.4091 195.29 49.7721C196.475 49.1351 197.758 48.8016 199.056 48.7928C201.79 48.8057 204.423 50.0401 206.443 52.2562C208.463 54.4723 209.726 57.5118 209.986 60.7847C210.108 62.339 209.959 63.9066 209.549 65.388C209.139 66.8693 208.477 68.2318 207.606 69.3891C206.734 70.5463 205.672 71.4729 204.486 72.1099C203.301 72.7469 202.018 73.0804 200.72 73.0891ZM199.503 55.2451C198.894 55.2451 198.291 55.3985 197.734 55.6955C197.176 55.9924 196.677 56.4263 196.267 56.9693C195.858 57.5122 195.547 58.1522 195.356 58.8481C195.165 59.544 195.097 60.2803 195.156 61.0097C195.284 62.5423 195.878 63.9642 196.824 65.0026C197.771 66.041 199.002 66.6229 200.283 66.6368C200.892 66.6351 201.494 66.4804 202.05 66.1827C202.606 65.885 203.104 65.4508 203.512 64.908C203.921 64.3653 204.23 63.7259 204.421 63.0309C204.612 62.3359 204.679 61.6006 204.62 60.8722C204.493 59.3459 203.903 57.9293 202.963 56.8917C202.024 55.8542 200.8 55.2681 199.524 55.2451H199.503Z" fill="#E0E0E0"/>
<path d="M201.24 54.3073L197.413 54.3698L195.375 24.709L199.212 24.659L201.24 54.3073Z" fill="#E0E0E0"/>
<path d="M202.842 25.9845L195.645 26.097L195.333 21.4828L202.53 21.3703L202.842 25.9845Z" fill="#E0E0E0"/>
<path d="M203.258 31.9116L196.487 32.0117L196.175 27.3975L202.935 27.2975L203.258 31.9116Z" fill="#E0E0E0"/>
<path d="M203.84 40.2647L197.933 40.3522L197.61 35.7505L203.518 35.663L203.84 40.2647Z" fill="#E0E0E0"/>
<path d="M82.4825 325.169C82.5046 325.542 82.5428 325.913 82.5969 326.281C82.9553 328.68 83.9516 330.874 85.4361 332.534C87.1223 334.458 89.3516 335.543 91.6761 335.572H179.546C181.628 335.613 183.639 334.663 185.143 332.931C186.646 331.198 187.52 328.822 187.575 326.319C187.598 324.836 187.377 323.362 186.925 321.982C186.473 320.601 185.798 319.342 184.94 318.276C184.082 317.211 183.057 316.36 181.924 315.772C180.791 315.184 179.573 314.872 178.339 314.852H90.4801C89.3758 314.836 88.2808 315.097 87.2653 315.618C86.2497 316.14 85.3362 316.912 84.5832 317.883C83.8301 318.854 83.2543 320.004 82.8925 321.259C82.5308 322.514 82.3911 323.845 82.4825 325.169Z" fill="#F0F0F0"/>
<path d="M187.606 326.281C187.599 326.617 187.571 326.951 187.522 327.282C187.269 324.553 186.194 322.03 184.501 320.187C182.808 318.345 180.612 317.31 178.329 317.278L84.8848 317.453C86.3944 315.714 88.41 314.754 90.5008 314.777H178.37C179.611 314.766 180.842 315.058 181.986 315.634C183.131 316.211 184.166 317.062 185.03 318.134C185.893 319.206 186.566 320.477 187.009 321.871C187.452 323.265 187.655 324.753 187.606 326.244V326.281Z" fill="#E0E0E0"/>
<path d="M172.567 319.804L172.858 324.806L176.8 323.043L177.694 325.544L173.68 327.194L176.488 331.433L174.72 333.034L171.985 328.632L169.801 333.034L167.856 331.433L170.134 327.194L165.974 325.606L166.566 323.105L170.726 324.806L170.435 319.804H172.567Z" fill="white"/>
<path d="M148.533 319.804L148.834 324.806L152.766 323.043L153.66 325.544L149.635 327.132L152.454 331.371L150.634 332.971L147.898 328.57L145.714 332.971L143.77 331.371L146.047 327.132L141.887 325.544L142.49 323.043L146.65 324.743L146.359 319.742L148.533 319.804Z" fill="white"/>
<path d="M124.509 319.804L124.8 324.806L128.742 323.043L129.636 325.544L125.611 327.132L128.419 331.371L126.599 332.971L123.864 328.57L121.68 332.971L119.735 331.371L122.013 327.132L117.853 325.544L118.456 323.043L122.616 324.743L122.325 319.742L124.509 319.804Z" fill="white"/>
<path d="M100.475 319.804L100.766 324.806L104.707 323.043L105.602 325.544L101.577 327.132L104.385 331.371L102.575 332.971L99.8401 328.632L97.6457 333.034L95.6801 331.433L97.9681 327.194L93.8081 325.606L94.4113 323.105L98.5713 324.806L98.2801 319.804H100.475Z" fill="white"/>
<path d="M158.85 311.163H154.752L154.762 309.913H158.86L158.85 311.163Z" fill="#E0E0E0"/>
<path d="M176.457 311.163H163.093L163.114 309.913H176.478L176.457 311.163Z" fill="#E0E0E0"/>
<g opacity="0.8">
<path d="M280.155 304.861L296.733 335.535L351.395 269.811C351.449 269.754 351.492 269.686 351.523 269.609C351.554 269.532 351.573 269.448 351.577 269.363C351.581 269.278 351.572 269.192 351.549 269.111C351.525 269.03 351.489 268.956 351.442 268.892C351.395 268.828 351.338 268.776 351.274 268.738C351.21 268.701 351.141 268.679 351.07 268.673C350.999 268.668 350.927 268.68 350.86 268.708C350.793 268.735 350.731 268.779 350.678 268.836L298.584 317.953L288.746 298.884L280.155 304.861Z" fill="#E0E0E0"/>
</g>
<path opacity="0.1" d="M270.254 86.5566L231.005 263.071H244.202L283.015 86.5566H270.254Z" fill="white"/>
<path opacity="0.1" d="M290.628 86.5566L251.378 263.071H277.566L316.378 86.5566H290.628Z" fill="white"/>
<path d="M431.922 245.815L440.242 104.138C440.32 103.049 440.206 101.953 439.909 100.921C439.612 99.8887 439.137 98.9429 438.517 98.1448C437.896 97.3468 437.143 96.7144 436.306 96.2885C435.47 95.8625 434.568 95.6527 433.659 95.6724L228.01 95.885C226.097 95.9167 224.262 96.8017 222.861 98.3683C221.46 99.9349 220.593 102.071 220.428 104.363L212.16 246.052C212.084 247.141 212.199 248.238 212.498 249.27C212.796 250.302 213.272 251.248 213.893 252.046C214.514 252.844 215.268 253.476 216.105 253.902C216.943 254.327 217.845 254.537 218.754 254.518L424.32 254.305C426.239 254.282 428.082 253.399 429.488 251.829C430.894 250.258 431.762 248.114 431.922 245.815Z" fill="#590000"/>
<path d="M429.281 242.726L437.601 101.049C437.68 99.9604 437.567 98.8636 437.271 97.8303C436.974 96.7971 436.5 95.8504 435.879 95.052C435.258 94.2535 434.504 93.6211 433.667 93.1959C432.829 92.7706 431.927 92.5621 431.018 92.5838L225.368 92.7963C223.456 92.8256 221.621 93.7101 220.221 95.2774C218.821 96.8448 217.957 98.9827 217.797 101.274L209.477 242.964C209.4 244.052 209.513 245.148 209.811 246.18C210.108 247.213 210.582 248.159 211.203 248.957C211.823 249.755 212.576 250.387 213.413 250.813C214.25 251.239 215.152 251.449 216.06 251.429L421.699 251.217C423.615 251.187 425.452 250.302 426.854 248.732C428.256 247.162 429.121 245.021 429.281 242.726Z" fill="#7D0000"/>
<path opacity="0.6" d="M423.831 244.827C423.409 245.294 422.856 245.553 422.282 245.552L216.632 245.765C216.302 245.76 215.976 245.675 215.674 245.515C215.372 245.355 215.1 245.124 214.875 244.834C214.649 244.544 214.475 244.202 214.362 243.829C214.25 243.456 214.201 243.06 214.219 242.663L222.539 100.987C222.571 100.299 222.825 99.6531 223.247 99.1862C223.666 98.7139 224.221 98.4541 224.796 98.4609L430.446 98.2483C430.776 98.2528 431.102 98.3375 431.404 98.4975C431.706 98.6575 431.978 98.8894 432.203 99.1792C432.429 99.469 432.603 99.8107 432.715 100.184C432.828 100.557 432.877 100.953 432.859 101.349L424.539 243.026C424.501 243.712 424.248 244.356 423.831 244.827Z" fill="white"/>
<path d="M355.43 166.936H283.244C282.608 166.949 281.997 167.238 281.525 167.751C281.052 168.264 280.751 168.965 280.675 169.724L279.562 182.417C279.527 182.769 279.554 183.127 279.643 183.466C279.731 183.805 279.879 184.117 280.076 184.382C280.273 184.647 280.514 184.859 280.784 185.003C281.054 185.147 281.347 185.22 281.642 185.218H353.829C354.467 185.202 355.079 184.91 355.553 184.396C356.027 183.881 356.331 183.178 356.408 182.417L357.51 169.724C357.544 169.373 357.516 169.016 357.426 168.679C357.337 168.341 357.189 168.031 356.993 167.767C356.796 167.503 356.555 167.293 356.286 167.15C356.016 167.006 355.725 166.934 355.43 166.936Z" fill="white"/>
<path d="M291.835 218.767H280.571C279.933 218.783 279.321 219.074 278.847 219.589C278.373 220.104 278.07 220.806 277.992 221.568L276.89 234.26C276.856 234.612 276.885 234.969 276.974 235.306C277.063 235.643 277.211 235.954 277.408 236.218C277.604 236.481 277.845 236.692 278.114 236.835C278.384 236.978 278.675 237.051 278.97 237.049H290.233C290.87 237.034 291.481 236.744 291.954 236.232C292.428 235.72 292.732 235.02 292.812 234.26L293.915 221.568C293.95 221.216 293.923 220.858 293.834 220.519C293.746 220.18 293.598 219.868 293.401 219.602C293.204 219.337 292.963 219.126 292.693 218.982C292.423 218.838 292.13 218.765 291.835 218.767Z" fill="white"/>
<path d="M311.283 218.767H300.019C299.381 218.783 298.769 219.074 298.295 219.589C297.821 220.104 297.518 220.806 297.44 221.568L296.338 234.26C296.304 234.612 296.333 234.969 296.422 235.306C296.511 235.643 296.659 235.954 296.855 236.218C297.052 236.481 297.293 236.692 297.562 236.835C297.832 236.978 298.123 237.051 298.418 237.049H309.681C310.318 237.034 310.929 236.744 311.402 236.232C311.876 235.72 312.18 235.02 312.26 234.26L313.363 221.568C313.398 221.216 313.371 220.858 313.282 220.519C313.194 220.18 313.046 219.868 312.849 219.602C312.652 219.337 312.411 219.126 312.141 218.982C311.871 218.838 311.578 218.765 311.283 218.767Z" fill="white"/>
<path d="M330.72 218.767H319.467C318.829 218.783 318.217 219.074 317.743 219.589C317.269 220.104 316.966 220.806 316.888 221.568L315.786 234.26C315.752 234.612 315.781 234.969 315.87 235.306C315.959 235.643 316.107 235.954 316.303 236.218C316.5 236.481 316.741 236.692 317.01 236.835C317.28 236.978 317.571 237.051 317.866 237.049H329.129C329.766 237.034 330.377 236.744 330.85 236.232C331.324 235.72 331.628 235.02 331.708 234.26L332.8 221.568C332.836 221.216 332.808 220.858 332.72 220.519C332.631 220.18 332.484 219.868 332.287 219.602C332.09 219.337 331.848 219.126 331.578 218.982C331.308 218.838 331.016 218.765 330.72 218.767Z" fill="white"/>
<path d="M350.179 218.767H338.915C338.277 218.783 337.665 219.074 337.191 219.589C336.717 220.104 336.414 220.806 336.336 221.568L335.234 234.26C335.2 234.612 335.229 234.969 335.318 235.306C335.407 235.643 335.555 235.954 335.752 236.218C335.948 236.481 336.189 236.692 336.458 236.835C336.728 236.978 337.019 237.051 337.314 237.049H348.577C349.214 237.034 349.825 236.744 350.298 236.232C350.772 235.72 351.076 235.02 351.156 234.26L352.259 221.568C352.294 221.216 352.267 220.858 352.178 220.519C352.09 220.18 351.942 219.868 351.745 219.602C351.548 219.337 351.307 219.126 351.037 218.982C350.767 218.838 350.474 218.765 350.179 218.767Z" fill="white"/>
<path d="M292.303 210.127H337.449C338.534 210.103 339.575 209.61 340.382 208.737C341.188 207.864 341.705 206.67 341.838 205.375L342.389 199.123C342.454 198.519 342.409 197.907 342.258 197.326C342.107 196.746 341.854 196.211 341.515 195.76C341.176 195.308 340.76 194.951 340.295 194.711C339.83 194.471 339.327 194.355 338.822 194.371H293.675C292.59 194.394 291.549 194.888 290.743 195.761C289.936 196.634 289.419 197.828 289.287 199.123L288.735 205.375C288.672 205.978 288.718 206.59 288.87 207.169C289.022 207.749 289.275 208.282 289.614 208.733C289.952 209.184 290.368 209.542 290.832 209.782C291.296 210.023 291.797 210.14 292.303 210.127Z" stroke="#7D0000" stroke-linecap="round" stroke-linejoin="round"/>
<path d="M358.03 140.501H285.844C285.208 140.52 284.598 140.813 284.126 141.327C283.655 141.841 283.353 142.542 283.275 143.302L282.162 155.994C282.129 156.346 282.157 156.703 282.246 157.04C282.336 157.377 282.484 157.688 282.68 157.952C282.877 158.215 283.118 158.426 283.387 158.569C283.656 158.712 283.948 158.785 284.242 158.783H356.418C357.055 158.768 357.666 158.478 358.14 157.966C358.613 157.454 358.918 156.754 358.998 155.994L360.1 143.302C360.135 142.951 360.108 142.594 360.02 142.256C359.932 141.918 359.786 141.606 359.59 141.341C359.394 141.076 359.154 140.865 358.885 140.72C358.616 140.575 358.325 140.5 358.03 140.501Z" fill="white"/>
<path d="M292.022 176.077C292.065 175.685 292.038 175.286 291.941 174.908C291.844 174.53 291.681 174.182 291.461 173.887C291.242 173.592 290.972 173.358 290.67 173.201C290.368 173.044 290.042 172.967 289.713 172.976C289.006 172.996 288.329 173.32 287.805 173.889C287.28 174.458 286.942 175.234 286.853 176.077C286.812 176.468 286.843 176.866 286.941 177.243C287.04 177.619 287.205 177.965 287.425 178.258C287.645 178.551 287.915 178.784 288.216 178.941C288.518 179.097 288.844 179.174 289.172 179.165C289.876 179.148 290.552 178.826 291.075 178.259C291.598 177.692 291.934 176.917 292.022 176.077Z" fill="#590000"/>
<path d="M299.967 176.077C300.009 175.684 299.98 175.285 299.882 174.907C299.784 174.529 299.62 174.181 299.399 173.887C299.179 173.592 298.909 173.358 298.607 173.201C298.304 173.044 297.977 172.967 297.648 172.976C296.942 172.993 296.265 173.317 295.742 173.887C295.218 174.456 294.884 175.234 294.799 176.077C294.757 176.468 294.785 176.865 294.883 177.242C294.98 177.618 295.144 177.965 295.363 178.258C295.583 178.551 295.852 178.784 296.153 178.941C296.454 179.097 296.779 179.174 297.107 179.165C297.813 179.148 298.49 178.827 299.015 178.26C299.54 177.693 299.878 176.918 299.967 176.077Z" fill="#590000"/>
<path d="M307.902 176.077C307.944 175.684 307.915 175.285 307.817 174.907C307.719 174.529 307.555 174.181 307.334 173.887C307.114 173.592 306.844 173.358 306.542 173.201C306.239 173.044 305.912 172.967 305.583 172.976C304.877 172.993 304.201 173.317 303.677 173.887C303.154 174.456 302.819 175.234 302.734 176.077C302.693 176.468 302.724 176.866 302.822 177.243C302.921 177.619 303.086 177.965 303.306 178.258C303.526 178.551 303.796 178.784 304.097 178.941C304.399 179.097 304.725 179.174 305.053 179.165C305.757 179.148 306.433 178.826 306.956 178.259C307.479 177.692 307.815 176.917 307.902 176.077Z" fill="#590000"/>
<path d="M315.838 176.077C315.881 175.685 315.854 175.286 315.757 174.908C315.66 174.53 315.497 174.182 315.277 173.887C315.058 173.592 314.788 173.358 314.486 173.201C314.184 173.044 313.858 172.967 313.529 172.976C312.823 172.993 312.146 173.317 311.623 173.887C311.099 174.456 310.764 175.234 310.679 176.077C310.636 176.473 310.666 176.875 310.767 177.256C310.867 177.636 311.036 177.985 311.261 178.279C311.486 178.572 311.762 178.803 312.07 178.954C312.377 179.105 312.708 179.173 313.04 179.153C313.734 179.121 314.396 178.795 314.908 178.231C315.42 177.668 315.75 176.905 315.838 176.077Z" fill="#590000"/>
<path d="M323.939 176.077C323.981 175.684 323.952 175.285 323.854 174.907C323.756 174.529 323.591 174.181 323.371 173.887C323.151 173.592 322.881 173.358 322.578 173.201C322.276 173.044 321.949 172.967 321.62 172.976C320.914 172.993 320.237 173.317 319.714 173.887C319.19 174.456 318.855 175.234 318.77 176.077C318.728 176.468 318.757 176.865 318.855 177.242C318.952 177.618 319.116 177.965 319.335 178.258C319.555 178.551 319.824 178.784 320.125 178.941C320.426 179.097 320.751 179.174 321.079 179.165C321.785 179.148 322.462 178.827 322.987 178.26C323.512 177.693 323.85 176.918 323.939 176.077Z" fill="#590000"/>
<path d="M294.622 149.642C294.666 149.251 294.638 148.852 294.541 148.475C294.445 148.098 294.281 147.75 294.061 147.456C293.841 147.162 293.571 146.93 293.27 146.774C292.968 146.618 292.641 146.543 292.313 146.553C291.609 146.571 290.933 146.893 290.41 147.46C289.887 148.027 289.551 148.802 289.463 149.642C289.42 150.033 289.447 150.432 289.544 150.809C289.641 151.187 289.805 151.534 290.024 151.828C290.244 152.122 290.514 152.355 290.816 152.51C291.117 152.666 291.444 152.741 291.772 152.731C292.477 152.716 293.154 152.395 293.678 151.827C294.201 151.26 294.537 150.484 294.622 149.642Z" fill="#590000"/>
<path d="M302.567 149.642C302.608 149.25 302.577 148.853 302.479 148.476C302.38 148.1 302.215 147.753 301.995 147.46C301.775 147.167 301.505 146.935 301.204 146.778C300.902 146.622 300.576 146.545 300.248 146.553C299.551 146.583 298.886 146.91 298.371 147.476C297.856 148.042 297.526 148.81 297.44 149.642C297.398 150.033 297.427 150.43 297.524 150.807C297.622 151.183 297.786 151.53 298.005 151.823C298.224 152.117 298.494 152.35 298.795 152.506C299.096 152.663 299.421 152.739 299.749 152.731C300.448 152.704 301.116 152.379 301.633 151.812C302.149 151.246 302.481 150.476 302.567 149.642Z" fill="#590000"/>
<path d="M310.503 149.642C310.545 149.251 310.516 148.854 310.418 148.477C310.321 148.101 310.157 147.754 309.938 147.461C309.718 147.167 309.449 146.935 309.148 146.778C308.847 146.621 308.522 146.545 308.194 146.553C307.488 146.571 306.811 146.892 306.286 147.459C305.761 148.026 305.423 148.8 305.334 149.642C305.292 150.034 305.321 150.433 305.419 150.81C305.517 151.187 305.682 151.535 305.902 151.828C306.122 152.122 306.393 152.354 306.695 152.51C306.997 152.666 307.324 152.741 307.653 152.731C308.358 152.716 309.035 152.395 309.558 151.827C310.082 151.26 310.417 150.484 310.503 149.642Z" fill="#590000"/>
<path d="M318.438 149.642C318.482 149.251 318.454 148.852 318.357 148.475C318.26 148.098 318.097 147.75 317.877 147.456C317.657 147.162 317.387 146.93 317.085 146.774C316.784 146.618 316.457 146.543 316.129 146.553C315.425 146.571 314.749 146.893 314.226 147.46C313.703 148.027 313.367 148.802 313.279 149.642C313.235 150.033 313.263 150.432 313.36 150.809C313.457 151.187 313.62 151.534 313.84 151.828C314.06 152.122 314.33 152.355 314.631 152.51C314.933 152.666 315.26 152.741 315.588 152.731C316.293 152.716 316.97 152.395 317.493 151.827C318.017 151.26 318.352 150.484 318.438 149.642Z" fill="#590000"/>
<path d="M326.383 149.642C326.424 149.25 326.394 148.853 326.295 148.476C326.196 148.1 326.031 147.753 325.811 147.46C325.591 147.167 325.321 146.935 325.02 146.778C324.718 146.622 324.392 146.545 324.064 146.553C323.36 146.571 322.684 146.893 322.161 147.46C321.638 148.027 321.302 148.802 321.215 149.642C321.172 150.034 321.201 150.433 321.299 150.81C321.398 151.187 321.563 151.535 321.783 151.828C322.003 152.122 322.274 152.354 322.576 152.51C322.878 152.666 323.205 152.741 323.534 152.731C324.239 152.716 324.915 152.395 325.439 151.827C325.963 151.26 326.298 150.484 326.383 149.642Z" fill="#590000"/>
<path d="M334.318 149.642C334.36 149.251 334.332 148.854 334.234 148.477C334.137 148.101 333.973 147.754 333.754 147.461C333.534 147.167 333.265 146.935 332.964 146.778C332.663 146.621 332.338 146.545 332.01 146.553C331.304 146.571 330.627 146.892 330.102 147.459C329.577 148.026 329.239 148.8 329.15 149.642C329.107 150.034 329.136 150.433 329.235 150.81C329.333 151.187 329.498 151.535 329.718 151.828C329.938 152.122 330.209 152.354 330.511 152.51C330.813 152.666 331.14 152.741 331.469 152.731C332.174 152.716 332.851 152.395 333.374 151.827C333.898 151.26 334.233 150.484 334.318 149.642Z" fill="#590000"/>
<path d="M327.6 112.516L327.038 118.931C326.999 119.21 326.881 119.465 326.706 119.653C326.53 119.842 326.306 119.953 326.071 119.969C325.96 119.974 325.85 119.949 325.748 119.897C325.646 119.846 325.554 119.767 325.48 119.669C325.406 119.57 325.35 119.452 325.318 119.325C325.285 119.197 325.276 119.063 325.291 118.931L325.853 112.516C325.902 112.041 325.866 111.559 325.747 111.102C325.627 110.646 325.428 110.225 325.161 109.869C324.895 109.514 324.568 109.231 324.203 109.04C323.838 108.85 323.443 108.756 323.045 108.765H321.121C320.266 108.789 319.447 109.181 318.811 109.869C318.176 110.557 317.767 111.496 317.658 112.516L317.169 118.468H315.422L315.91 112.516C316.075 110.925 316.712 109.458 317.703 108.386C318.695 107.313 319.975 106.706 321.308 106.676H323.222C323.843 106.658 324.46 106.801 325.03 107.096C325.601 107.391 326.112 107.831 326.528 108.385C326.944 108.94 327.255 109.597 327.44 110.31C327.625 111.023 327.68 111.775 327.6 112.516Z" fill="#7D0000"/>
<path d="M327.6 118.693L326.508 131.198C326.466 131.586 326.31 131.943 326.067 132.205C325.825 132.466 325.513 132.615 325.187 132.623H314.787C314.638 132.625 314.489 132.588 314.353 132.515C314.216 132.441 314.094 132.333 313.995 132.198C313.896 132.062 313.823 131.903 313.78 131.73C313.738 131.558 313.726 131.376 313.747 131.198L314.839 118.693C314.86 118.436 314.931 118.189 315.046 117.971C315.162 117.754 315.319 117.573 315.505 117.443C315.704 117.303 315.93 117.229 316.16 117.23H326.56C326.773 117.228 326.982 117.297 327.163 117.43C327.33 117.567 327.46 117.759 327.538 117.984C327.616 118.208 327.637 118.454 327.6 118.693Z" fill="#7D0000"/>
<path d="M409.043 91.7585L383.625 91.9335" stroke="#590000" stroke-linecap="round" stroke-linejoin="round"/>
<path d="M422.895 91.6709L413.91 91.7209" stroke="#590000" stroke-linecap="round" stroke-linejoin="round"/>
<g opacity="0.3">
<path d="M244.504 98.4234H273.624L244.015 245.765H220.542C219.865 245.749 219.2 245.549 218.596 245.18C217.992 244.811 217.465 244.282 217.055 243.634C216.645 242.986 216.362 242.235 216.228 241.436C216.093 240.638 216.11 239.814 216.278 239.025L244.504 98.4234Z" fill="white"/>
<path d="M286.52 98.4234H298.865L269.287 245.765H256.942L286.52 98.4234Z" fill="white"/>
</g>
<path d="M90.1159 52.4316H96.0231C94.6392 52.4079 93.2666 52.7334 91.9937 53.3869C90.7209 54.0405 89.5762 55.0077 88.6335 56.226C87.6907 57.4444 86.9709 58.8868 86.5205 60.4603C86.07 62.0338 85.8989 63.7034 86.0183 65.3613L98.5503 280.815C98.7879 284.304 100.098 287.561 102.224 289.951C104.351 292.342 107.142 293.694 110.053 293.745H104.156C101.244 293.694 98.4517 292.342 96.3234 289.952C94.1951 287.562 92.8831 284.305 92.6431 280.815L80.0799 65.3613C79.9602 63.7002 80.1321 62.0274 80.5844 60.4513C81.0367 58.8752 81.7594 57.4308 82.7055 56.2119C83.6516 54.993 84.8002 54.0266 86.0767 53.3754C87.3533 52.7242 88.7294 52.4026 90.1159 52.4316Z" fill="#A85454"/>
<path d="M90.1158 52.4316H96.023C94.6391 52.4079 93.2665 52.7334 91.9936 53.387C90.7208 54.0405 89.5761 55.0077 88.6334 56.226C87.6906 57.4444 86.9708 58.8869 86.5204 60.4604C86.0699 62.0339 85.8988 63.7034 86.0182 65.3613L98.5502 280.815C98.7878 284.304 100.098 287.561 102.224 289.951C104.351 292.342 107.142 293.694 110.053 293.745H104.156C98.2174 293.745 92.227 287.955 91.811 280.815L79.279 65.3613C78.863 58.2212 84.1774 52.4316 90.1158 52.4316Z" fill="#590000"/>
<path d="M105.913 293.757H178.193C179.581 293.788 180.958 293.468 182.236 292.817C183.514 292.167 184.664 291.201 185.611 289.982C186.558 288.762 187.282 287.317 187.735 285.74C188.187 284.163 188.36 282.49 188.24 280.827L175.666 65.3613C175.431 61.8683 174.121 58.6063 171.992 56.2129C169.863 53.8196 167.068 52.4668 164.153 52.4191H91.8839C90.4991 52.3953 89.1254 52.721 87.8519 53.3753C86.5783 54.0297 85.433 54.998 84.4901 56.2177C83.5472 57.4374 82.8276 58.8815 82.3779 60.4565C81.9281 62.0315 81.7582 63.7024 81.8791 65.3613L94.3591 280.815C94.5974 284.315 95.9142 287.583 98.0515 289.977C100.189 292.371 102.993 293.719 105.913 293.757Z" fill="#A85454"/>
<g opacity="0.6">
<path d="M163.966 56.6081C165.991 56.6466 167.932 57.5898 169.41 59.2541C170.888 60.9183 171.799 63.1845 171.964 65.6114L184.496 281.065C184.581 282.165 184.472 283.273 184.176 284.319C183.88 285.364 183.404 286.322 182.778 287.131C182.153 287.94 181.392 288.58 180.547 289.011C179.701 289.442 178.789 289.653 177.871 289.631H105.601C103.575 289.592 101.634 288.65 100.154 286.986C98.6735 285.322 97.761 283.055 97.5935 280.627L85.1135 65.1738C85.0288 64.0796 85.1365 62.9762 85.4294 61.9353C85.7223 60.8943 86.1939 59.939 86.8137 59.1313C87.4334 58.3237 88.1875 57.6817 89.0269 57.247C89.8663 56.8123 90.7724 56.5947 91.6863 56.6081H163.966Z" fill="white"/>
</g>
<g opacity="0.3">
<path d="M143.52 289.606H114.722L138.497 56.6081H161.699C162.701 56.6036 163.693 56.8479 164.613 57.3256C165.533 57.8032 166.361 58.504 167.045 59.3842L143.52 289.606Z" fill="white"/>
<path d="M109.554 289.606H103.064L126.838 56.5831H133.328L109.554 289.606Z" fill="white"/>
</g>
<path d="M107.307 158.395H159.661" stroke="white" stroke-linecap="round" stroke-linejoin="round"/>
<path d="M114.057 167.711H155.064" stroke="white" stroke-linecap="round" stroke-linejoin="round"/>
<path d="M108.867 115.48L108.94 117.981H107.598L107.525 115.48L105.144 110.99H106.569L108.212 114.092L109.668 110.99H110.989L108.867 115.48Z" fill="#A85454"/>
<path d="M111.041 114.454C111.023 113.963 111.093 113.472 111.245 113.016C111.397 112.559 111.629 112.146 111.924 111.806C112.219 111.465 112.571 111.204 112.957 111.04C113.343 110.875 113.753 110.812 114.161 110.853C114.573 110.828 114.986 110.901 115.374 111.069C115.763 111.237 116.12 111.496 116.424 111.831C116.729 112.166 116.976 112.57 117.149 113.021C117.323 113.471 117.421 113.958 117.437 114.454C117.456 114.947 117.388 115.439 117.236 115.897C117.084 116.355 116.853 116.769 116.558 117.111C116.262 117.453 115.91 117.716 115.523 117.881C115.137 118.046 114.725 118.11 114.317 118.068C113.904 118.093 113.49 118.019 113.101 117.851C112.712 117.682 112.354 117.422 112.05 117.086C111.745 116.749 111.499 116.344 111.325 115.892C111.152 115.44 111.055 114.951 111.041 114.454ZM116.033 114.454C116.034 114.158 115.986 113.865 115.892 113.592C115.797 113.318 115.658 113.071 115.483 112.863C115.307 112.656 115.099 112.492 114.87 112.383C114.641 112.274 114.396 112.222 114.15 112.228C113.909 112.216 113.669 112.266 113.445 112.376C113.221 112.485 113.02 112.651 112.854 112.862C112.689 113.073 112.563 113.324 112.485 113.599C112.407 113.874 112.379 114.165 112.403 114.454C112.4 114.751 112.447 115.046 112.541 115.321C112.635 115.595 112.774 115.845 112.949 116.054C113.125 116.262 113.334 116.427 113.563 116.536C113.793 116.646 114.039 116.699 114.286 116.693C114.527 116.701 114.767 116.648 114.99 116.536C115.212 116.425 115.413 116.258 115.578 116.046C115.743 115.835 115.869 115.583 115.947 115.309C116.026 115.034 116.055 114.743 116.033 114.454Z" fill="#A85454"/>
<path d="M118.362 114.879L118.258 110.965H119.6L119.704 114.817C119.704 116.142 120.245 116.693 121.056 116.693C121.867 116.693 122.325 116.142 122.293 114.817L122.179 110.965H123.5L123.614 114.879C123.669 115.3 123.642 115.73 123.537 116.137C123.431 116.543 123.249 116.915 123.005 117.223C122.76 117.531 122.46 117.768 122.128 117.914C121.795 118.061 121.439 118.113 121.087 118.068C120.727 118.107 120.365 118.051 120.025 117.906C119.685 117.761 119.374 117.529 119.116 117.226C118.857 116.923 118.656 116.557 118.526 116.152C118.396 115.747 118.34 115.313 118.362 114.879Z" fill="#A85454"/>
<path d="M128.731 117.955L127.556 116.005H126.318L126.381 117.955H125.039L124.831 110.965H127.348C128.897 110.965 129.896 111.941 129.937 113.466C129.971 113.931 129.879 114.397 129.675 114.793C129.47 115.19 129.165 115.496 128.804 115.667L130.177 117.918L128.731 117.955ZM127.306 112.291H126.266L126.339 114.717H127.379C128.201 114.717 128.596 114.267 128.575 113.466C128.554 112.666 128.128 112.291 127.306 112.291Z" fill="#A85454"/>
<path d="M133.016 114.454C132.994 113.97 133.058 113.486 133.204 113.034C133.35 112.582 133.573 112.172 133.86 111.832C134.147 111.492 134.491 111.228 134.869 111.06C135.247 110.891 135.65 110.82 136.053 110.853C136.508 110.836 136.961 110.939 137.379 111.155C137.798 111.371 138.172 111.695 138.476 112.103L137.644 113.054C137.46 112.797 137.231 112.591 136.975 112.45C136.718 112.31 136.439 112.239 136.157 112.241C135.913 112.226 135.669 112.273 135.442 112.381C135.215 112.488 135.01 112.653 134.84 112.864C134.671 113.075 134.541 113.327 134.459 113.604C134.378 113.88 134.347 114.174 134.368 114.467C134.366 114.768 134.415 115.066 134.512 115.343C134.609 115.62 134.752 115.871 134.932 116.081C135.112 116.29 135.325 116.453 135.559 116.56C135.792 116.668 136.042 116.717 136.292 116.705C136.568 116.712 136.842 116.641 137.091 116.497C137.34 116.354 137.558 116.143 137.727 115.88L138.611 116.83C138.328 117.245 137.968 117.575 137.56 117.792C137.151 118.009 136.706 118.108 136.261 118.081C135.849 118.101 135.438 118.023 135.052 117.851C134.666 117.679 134.312 117.417 134.01 117.08C133.708 116.743 133.465 116.337 133.295 115.887C133.124 115.436 133.029 114.949 133.016 114.454Z" fill="#A85454"/>
<path d="M138.965 114.454C138.948 113.968 139.016 113.484 139.165 113.032C139.314 112.58 139.541 112.17 139.831 111.831C140.12 111.491 140.466 111.228 140.845 111.06C141.224 110.891 141.629 110.821 142.033 110.853C142.445 110.828 142.857 110.901 143.246 111.069C143.635 111.237 143.992 111.496 144.296 111.831C144.601 112.166 144.847 112.57 145.021 113.021C145.195 113.471 145.293 113.958 145.309 114.454C145.327 114.941 145.26 115.427 145.111 115.881C144.963 116.334 144.736 116.745 144.447 117.086C144.157 117.427 143.811 117.691 143.431 117.86C143.051 118.029 142.645 118.1 142.241 118.068C141.827 118.093 141.414 118.019 141.025 117.851C140.636 117.682 140.278 117.422 139.973 117.086C139.669 116.749 139.422 116.344 139.249 115.892C139.076 115.44 138.979 114.951 138.965 114.454ZM143.946 114.454C143.949 114.159 143.903 113.866 143.809 113.593C143.716 113.319 143.578 113.071 143.403 112.864C143.228 112.656 143.021 112.493 142.792 112.384C142.564 112.274 142.32 112.222 142.074 112.228C141.833 112.216 141.593 112.266 141.369 112.376C141.145 112.485 140.944 112.651 140.778 112.862C140.613 113.073 140.487 113.324 140.409 113.599C140.331 113.874 140.303 114.165 140.327 114.454C140.323 114.751 140.368 115.045 140.461 115.32C140.554 115.594 140.692 115.844 140.867 116.053C141.041 116.262 141.25 116.426 141.479 116.536C141.708 116.646 141.953 116.699 142.199 116.693C142.441 116.703 142.681 116.651 142.905 116.54C143.129 116.429 143.33 116.262 143.495 116.05C143.661 115.838 143.787 115.586 143.865 115.311C143.942 115.036 143.97 114.744 143.946 114.454Z" fill="#A85454"/>
<path d="M146.224 110.965H148.855C149.265 110.917 149.679 110.971 150.071 111.123C150.462 111.275 150.824 111.522 151.133 111.849C151.442 112.176 151.692 112.577 151.868 113.025C152.043 113.473 152.14 113.959 152.152 114.454C152.175 114.943 152.108 115.432 151.957 115.887C151.805 116.341 151.572 116.75 151.274 117.084C150.976 117.418 150.621 117.669 150.234 117.82C149.846 117.97 149.436 118.017 149.032 117.956H146.39L146.224 110.965ZM148.959 116.63C149.204 116.661 149.452 116.626 149.685 116.528C149.918 116.43 150.13 116.271 150.305 116.063C150.481 115.855 150.617 115.603 150.702 115.325C150.788 115.047 150.821 114.75 150.8 114.454C150.799 114.153 150.747 113.855 150.646 113.58C150.545 113.304 150.397 113.057 150.212 112.854C150.027 112.65 149.809 112.495 149.572 112.398C149.335 112.302 149.084 112.265 148.834 112.291H147.607L147.732 116.63H148.959Z" fill="#A85454"/>
<path d="M157.726 116.63V117.88H153.233L153.025 110.89H157.414V112.141H154.44V113.654H157.133V114.904H154.44V116.517L157.726 116.63Z" fill="#A85454"/>
<path d="M118.955 143.902V146.703H108.046V144.49L113.849 137.75C115.263 136.087 115.502 135.049 115.492 133.999C115.492 132.373 114.514 131.423 112.694 131.423C112.037 131.383 111.382 131.531 110.782 131.855C110.181 132.179 109.654 132.669 109.242 133.286L107.286 131.498C107.959 130.509 108.816 129.726 109.789 129.213C110.761 128.7 111.821 128.472 112.882 128.547C116.106 128.547 118.217 130.51 118.258 133.674C118.258 135.399 117.905 136.987 115.887 139.313L111.987 143.852L118.955 143.902Z" fill="#590000"/>
<path d="M131.04 141.352C131.04 144.353 129.23 146.954 125.247 146.954C123.241 146.997 121.275 146.274 119.631 144.89L120.786 142.314C122.039 143.477 123.581 144.098 125.164 144.078C127.13 144.078 128.284 143.027 128.284 141.377C128.284 139.726 127.244 138.713 125.018 138.713H123.666V136.45L126.88 131.635H120.13V128.859H130.26V131.085L126.724 136.237C129.563 136.637 131.04 138.663 131.04 141.352Z" fill="#590000"/>
<path d="M144.914 141.639C144.914 144.953 142.594 147.016 138.902 147.016C135.21 147.016 132.818 144.953 132.777 141.639C132.746 140.728 132.951 139.828 133.365 139.064C133.779 138.3 134.38 137.709 135.086 137.375C134.51 137.024 134.027 136.487 133.69 135.825C133.354 135.162 133.178 134.4 133.182 133.624C133.182 130.56 135.346 128.622 138.632 128.622C141.918 128.622 144.217 130.535 144.258 133.624C144.291 134.395 144.134 135.162 143.809 135.828C143.484 136.495 143.004 137.032 142.428 137.375C143.151 137.702 143.775 138.284 144.219 139.045C144.662 139.806 144.904 140.71 144.914 141.639ZM142.126 141.539C142.126 139.776 140.816 138.676 138.778 138.676C136.739 138.676 135.522 139.776 135.554 141.539C135.585 143.302 136.822 144.415 138.861 144.415C140.899 144.415 142.158 143.29 142.126 141.477V141.539ZM135.886 133.786C135.886 135.312 136.926 136.287 138.726 136.287C140.525 136.287 141.554 135.312 141.523 133.786C141.492 132.261 140.348 131.285 138.642 131.285C136.937 131.285 135.886 132.111 135.907 133.724L135.886 133.786Z" fill="#590000"/>
<path d="M158.745 141.639C158.745 144.953 156.426 147.016 152.734 147.016C149.042 147.016 146.64 144.89 146.64 141.639C146.61 140.728 146.816 139.829 147.23 139.065C147.643 138.302 148.244 137.711 148.949 137.375C148.372 137.026 147.889 136.489 147.555 135.826C147.22 135.162 147.047 134.399 147.056 133.624C147.004 130.56 149.209 128.622 152.495 128.622C155.781 128.622 158.08 130.535 158.121 133.624C158.154 134.395 157.997 135.162 157.672 135.828C157.347 136.495 156.867 137.032 156.291 137.375C157.008 137.708 157.626 138.293 158.063 139.053C158.501 139.814 158.739 140.715 158.745 141.639ZM155.958 141.539C155.958 139.776 154.648 138.676 152.609 138.676C150.571 138.676 149.354 139.776 149.385 141.539C149.417 143.302 150.654 144.415 152.693 144.415C154.731 144.415 156 143.29 156 141.477L155.958 141.539ZM149.718 133.786C149.718 135.312 150.81 136.287 152.557 136.287C154.305 136.287 155.386 135.312 155.365 133.786C155.345 132.261 154.18 131.285 152.485 131.285C150.789 131.285 149.76 132.111 149.76 133.724L149.718 133.786Z" fill="#590000"/>
<path d="M79.7886 83.668L81.6294 113.892" stroke="#A85454" stroke-linecap="round" stroke-linejoin="round"/>
<path d="M78.9463 69.888L79.4351 77.8659" stroke="#A85454" stroke-linecap="round" stroke-linejoin="round"/>
<path d="M128.305 39.8395V21.4453" stroke="#A85454" stroke-linecap="round" stroke-linejoin="round"/>
<path d="M116.189 43.7409L108.545 27.8101" stroke="#A85454" stroke-linecap="round" stroke-linejoin="round"/>
<path d="M148.065 27.8101L140.421 43.7409" stroke="#A85454" stroke-linecap="round" stroke-linejoin="round"/>
<path d="M326.446 366.421C321.191 391.79 319.064 417.95 320.133 444.062" stroke="#973333" stroke-miterlimit="10"/>
<path d="M321.589 365.346C321.589 367.672 323.378 375.937 325.322 375.875C327.267 375.812 328.671 367.471 328.619 365.133C328.608 364.578 328.505 364.031 328.318 363.524C328.13 363.016 327.862 362.558 327.527 362.176C327.192 361.793 326.798 361.493 326.367 361.294C325.937 361.094 325.477 360.999 325.016 361.013C324.554 361.027 324.099 361.15 323.677 361.375C323.255 361.601 322.874 361.924 322.556 362.326C322.238 362.728 321.988 363.202 321.823 363.72C321.657 364.238 321.577 364.791 321.589 365.346Z" fill="#973333"/>
<path d="M329.149 391.593C329.149 389.254 327.361 381.001 325.426 381.051C323.492 381.101 322.077 389.454 322.119 391.793C322.13 392.348 322.232 392.895 322.418 393.403C322.605 393.91 322.873 394.369 323.207 394.752C323.542 395.135 323.935 395.436 324.366 395.636C324.797 395.836 325.256 395.932 325.717 395.919C326.179 395.906 326.634 395.784 327.056 395.559C327.479 395.335 327.86 395.012 328.179 394.611C328.497 394.209 328.747 393.736 328.914 393.218C329.08 392.7 329.16 392.148 329.149 391.593Z" fill="#973333"/>
<path d="M314.454 382.977C316.399 382.977 323.263 380.826 323.211 378.488C323.159 376.15 316.233 374.462 314.288 374.524C313.826 374.537 313.371 374.66 312.949 374.884C312.527 375.109 312.145 375.431 311.827 375.833C311.508 376.234 311.258 376.708 311.092 377.226C310.925 377.743 310.845 378.296 310.856 378.851C310.867 379.406 310.969 379.953 311.155 380.46C311.342 380.968 311.61 381.427 311.944 381.81C312.279 382.193 312.672 382.493 313.103 382.694C313.534 382.894 313.993 382.99 314.454 382.977Z" fill="#973333"/>
<path d="M336.284 373.924C334.35 373.924 327.475 376.075 327.527 378.4C327.579 380.726 334.516 382.427 336.461 382.377C336.922 382.363 337.377 382.24 337.799 382.015C338.221 381.789 338.602 381.466 338.92 381.064C339.239 380.661 339.488 380.188 339.654 379.67C339.82 379.151 339.899 378.599 339.888 378.044C339.876 377.489 339.774 376.942 339.586 376.435C339.399 375.927 339.13 375.469 338.795 375.087C338.461 374.704 338.067 374.404 337.636 374.205C337.205 374.005 336.746 373.91 336.284 373.924Z" fill="#973333"/>
<path d="M314.974 372.398C316.389 374.011 322.473 378.375 323.814 376.675C325.156 374.974 321.235 367.922 319.831 366.284C319.157 365.509 318.254 365.089 317.322 365.114C316.39 365.14 315.504 365.61 314.86 366.421C314.216 367.232 313.866 368.317 313.888 369.438C313.909 370.559 314.3 371.624 314.974 372.398Z" fill="#973333"/>
<path d="M335.764 384.528C334.36 382.915 328.276 378.563 326.934 380.251C325.593 381.939 329.503 389.004 330.907 390.655C331.242 391.038 331.636 391.339 332.067 391.539C332.498 391.739 332.958 391.836 333.42 391.822C333.882 391.809 334.338 391.686 334.76 391.461C335.183 391.236 335.565 390.913 335.883 390.511C336.202 390.109 336.452 389.635 336.619 389.117C336.785 388.598 336.865 388.045 336.854 387.49C336.843 386.934 336.741 386.387 336.554 385.878C336.367 385.37 336.098 384.911 335.764 384.528Z" fill="#973333"/>
<path d="M320.32 390.968C321.661 389.267 325.281 381.952 323.877 380.339C322.473 378.726 316.597 383.44 315.224 385.128C314.58 385.94 314.231 387.027 314.253 388.149C314.275 389.272 314.668 390.337 315.343 391.111C316.019 391.886 316.923 392.306 317.856 392.279C318.79 392.252 319.676 391.78 320.32 390.968Z" fill="#973333"/>
<path d="M330.418 365.971C329.077 367.659 325.447 374.974 326.861 376.587C328.276 378.2 334.141 373.499 335.504 371.811C335.823 371.409 336.073 370.936 336.24 370.418C336.406 369.901 336.487 369.349 336.476 368.794C336.466 368.238 336.364 367.691 336.178 367.183C335.991 366.676 335.723 366.217 335.389 365.833C335.055 365.45 334.662 365.149 334.231 364.949C333.801 364.748 333.342 364.651 332.88 364.664C332.418 364.677 331.963 364.799 331.541 365.023C331.119 365.247 330.737 365.569 330.418 365.971Z" fill="#973333"/>
<path d="M321.204 378.588C321.225 379.576 321.489 380.535 321.962 381.343C322.436 382.151 323.098 382.772 323.865 383.128C324.632 383.484 325.47 383.559 326.272 383.343C327.075 383.126 327.806 382.629 328.373 381.914C328.941 381.198 329.319 380.297 329.461 379.323C329.602 378.349 329.5 377.347 329.168 376.442C328.836 375.538 328.289 374.772 327.595 374.241C326.901 373.711 326.092 373.439 325.27 373.461C324.723 373.476 324.184 373.62 323.683 373.886C323.182 374.152 322.73 374.534 322.352 375.01C321.974 375.486 321.679 376.047 321.481 376.661C321.284 377.275 321.19 377.93 321.204 378.588Z" fill="white"/>
<path d="M320.611 415.802C320.611 415.802 321.329 403.034 327.163 401.021C332.997 399.008 335.129 396.257 335.129 396.257C335.129 396.257 334.537 416.052 320.611 415.802Z" fill="#973333"/>
<path opacity="0.5" d="M320.611 415.802C320.611 415.802 321.329 403.034 327.163 401.021C332.997 399.008 335.129 396.257 335.129 396.257C335.129 396.257 334.537 416.052 320.611 415.802Z" fill="white"/>
<path d="M319.841 425.58C319.841 425.58 319.124 412.813 313.289 410.787C307.455 408.762 305.323 406.036 305.323 406.036C305.323 406.036 305.916 425.83 319.841 425.58Z" fill="#973333"/>
<path opacity="0.5" d="M319.841 425.58C319.841 425.58 319.124 412.813 313.289 410.787C307.455 408.762 305.323 406.036 305.323 406.036C305.323 406.036 305.916 425.83 319.841 425.58Z" fill="white"/>
<path d="M341.848 452.177C341.848 462.181 331.978 470.209 319.81 470.209C307.642 470.209 297.773 462.143 297.773 452.177C297.773 447.176 300.3 442.574 304.387 439.31C306.963 437.29 309.825 435.858 312.832 435.084H326.789C329.873 435.882 332.805 437.371 335.431 439.473C339.404 442.736 341.848 447.213 341.848 452.177Z" fill="#973333"/>
<path opacity="0.8" d="M326.789 435.084C329.873 435.882 332.805 437.371 335.431 439.473C339.404 442.736 341.848 447.213 341.848 452.177C341.848 462.181 331.978 470.209 319.81 470.209C307.642 470.209 297.773 462.143 297.773 452.177C297.773 447.176 300.3 442.574 304.387 439.31C306.963 437.29 309.825 435.858 312.832 435.084H326.789Z" fill="white"/>
<path d="M319.873 436.747V445.662" stroke="#973333" stroke-miterlimit="10"/>
<path d="M336.398 434.809L335.234 439.185L335.213 439.235H304.398L304.335 438.998L303.222 434.809H336.398Z" fill="#973333"/>
<path d="M339.248 455.804C337.04 459.483 334.139 462.483 330.782 464.557C325.489 467.933 303.222 468.796 300.674 453.615C300.674 453.403 300.581 453.19 300.549 452.978C300.438 452.038 300.506 451.079 300.748 450.176C300.991 449.272 301.401 448.446 301.948 447.762C302.496 447.077 303.166 446.552 303.907 446.225C304.649 445.898 305.442 445.778 306.228 445.875C308.339 446.046 310.459 445.903 312.541 445.45C320.535 443.994 328.693 444.517 336.513 446.988C337.254 447.224 337.937 447.67 338.504 448.289C339.072 448.908 339.508 449.682 339.776 450.545C340.044 451.409 340.136 452.337 340.044 453.252C339.952 454.167 339.679 455.042 339.248 455.804Z" fill="#590000"/>
<path d="M179.41 450.752C179.605 450.661 179.777 450.512 179.912 450.32C180.046 450.127 180.139 449.898 180.18 449.651C180.22 449.503 180.225 449.344 180.196 449.192C180.167 449.04 180.104 448.901 180.014 448.789C179.213 447.788 175.958 448.501 175.594 448.589C175.551 448.593 175.511 448.613 175.479 448.647C175.447 448.681 175.426 448.726 175.417 448.776C175.408 448.825 175.412 448.875 175.427 448.922C175.441 448.968 175.467 449.009 175.5 449.039C176.149 449.609 176.846 450.095 177.58 450.489C178.146 450.832 178.793 450.925 179.41 450.752ZM179.702 449.139C179.74 449.191 179.766 449.254 179.777 449.322C179.788 449.391 179.783 449.461 179.764 449.526C179.74 449.69 179.682 449.844 179.594 449.973C179.507 450.103 179.393 450.203 179.265 450.264C178.672 450.527 177.538 450.039 176.145 449.014C177.497 448.739 179.275 448.601 179.702 449.139Z" fill="#973333"/>
<path d="M175.656 449.089C176.696 448.939 178.942 447.526 179.14 446.3C179.175 446.1 179.15 445.892 179.07 445.711C178.99 445.531 178.861 445.39 178.703 445.312C178.557 445.215 178.394 445.157 178.228 445.142C178.061 445.127 177.893 445.155 177.736 445.225C176.488 445.737 175.469 448.614 175.427 448.739C175.412 448.778 175.405 448.82 175.405 448.864C175.405 448.907 175.412 448.949 175.427 448.989C175.451 449.027 175.484 449.057 175.521 449.076L175.656 449.089ZM178.485 445.762C178.734 445.925 178.745 446.088 178.724 446.2C178.599 446.95 177.07 448.113 175.999 448.476C176.384 447.538 177.133 445.975 177.882 445.7C178.048 445.618 178.235 445.618 178.402 445.7L178.485 445.762Z" fill="#973333"/>
<path d="M165.786 444.049L174.252 448.163L181.646 424.642L173.17 420.528L165.786 444.049Z" fill="#FFB573"/>
<path d="M175.323 447.326L165.818 442.711C165.656 442.626 165.473 442.615 165.305 442.679C165.137 442.744 164.994 442.88 164.902 443.062L160.742 451.44C160.644 451.655 160.585 451.893 160.57 452.138C160.554 452.383 160.582 452.629 160.652 452.86C160.722 453.091 160.832 453.301 160.975 453.477C161.118 453.652 161.29 453.789 161.481 453.878C164.83 455.429 166.504 455.966 170.685 458.004C173.264 459.255 176.925 461.393 180.461 463.131C183.997 464.869 185.661 460.793 184.298 459.693C178.256 454.778 178.058 451.94 176.55 448.639C176.282 448.042 175.847 447.577 175.323 447.326Z" fill="#590000"/>
<path d="M181.532 436.184L166.826 429.031L168.178 422.554L183.955 429.494L181.532 436.184Z" fill="#973333"/>
<path d="M196.258 163.935C193.273 174.326 184.444 198.785 177.632 188.594C176.406 186.794 175.404 184.789 174.657 182.642C171.777 174.076 171.059 160.196 170.695 157.157L168.376 147.641C168.335 147.479 168.314 147.311 168.313 147.141V141.702C168.313 139.501 169.79 138.188 171.787 138.388C171.787 138.388 175.011 137.938 175.011 140.251L175.635 148.417C175.957 151.255 175.021 155.207 175.573 157.808C177.653 167.599 180.513 168.049 182.312 178.152C184.818 170.862 189.301 158.245 189.301 158.245C192.275 158.695 197.236 160.521 196.258 163.935Z" fill="#FFB573"/>
<path d="M185.588 192.32C185.12 193.197 184.482 193.925 183.729 194.441C182.975 194.956 182.129 195.244 181.263 195.28C180.396 195.315 179.536 195.098 178.755 194.645C177.974 194.193 177.296 193.52 176.779 192.683C175.546 190.713 174.578 188.523 173.909 186.193C171.205 175.527 169.53 168.924 169.302 157.783C170.26 156.618 171.471 155.801 172.796 155.423C174.122 155.045 175.509 155.121 176.8 155.644L181.23 173.688C181.23 173.688 190.247 146.741 193.898 145.778C198.193 144.64 199.982 149.254 201.802 154.931C203.112 159.008 191.464 181.429 185.588 192.32Z" fill="#973333"/>
<path d="M222.019 118.806C220.979 125.058 218.712 138.713 222.352 142.89C222.352 142.89 220.927 149.229 211.266 149.229C200.626 149.229 206.18 142.89 206.18 142.89C211.983 141.226 211.827 136.05 210.818 131.185L222.019 118.806Z" fill="#FFB573"/>
<path d="M205.764 104.125C205.826 104.137 205.889 104.137 205.951 104.125C206.047 104.062 206.119 103.956 206.152 103.83C206.185 103.705 206.176 103.569 206.128 103.45C205.85 102.732 205.431 102.105 204.908 101.624C204.384 101.143 203.772 100.821 203.122 100.687C203.068 100.678 203.013 100.683 202.961 100.7C202.908 100.717 202.859 100.748 202.816 100.788C202.773 100.829 202.738 100.88 202.712 100.938C202.686 100.996 202.67 101.059 202.665 101.124C202.657 101.189 202.661 101.256 202.676 101.319C202.69 101.382 202.715 101.441 202.749 101.493C202.783 101.544 202.826 101.587 202.874 101.618C202.922 101.649 202.974 101.668 203.029 101.675C203.541 101.795 204.021 102.059 204.432 102.446C204.842 102.833 205.17 103.331 205.39 103.9C205.43 103.974 205.486 104.034 205.551 104.074C205.617 104.113 205.691 104.131 205.764 104.125Z" fill="#590000"/>
<path d="M202.592 109.527C201.769 111.356 200.74 113.039 199.534 114.529C199.861 114.889 200.249 115.159 200.671 115.321C201.093 115.483 201.539 115.533 201.978 115.467L202.592 109.527Z" fill="#ED893E"/>
<path d="M203.424 107.702C203.58 108.527 203.33 109.302 202.883 109.415C202.436 109.527 201.937 108.952 201.791 108.164C201.645 107.377 201.885 106.564 202.342 106.439C202.8 106.314 203.278 106.864 203.424 107.702Z" fill="#590000"/>
<path d="M202.55 106.401L200.782 106.251C200.782 106.251 201.916 107.589 202.55 106.401Z" fill="#590000"/>
<path opacity="0.2" d="M195.884 158.608C197.725 156.57 199.004 157.182 199.815 158.795C200.657 163.472 195.655 173.276 193.689 176.99L195.884 158.608Z" fill="black"/>
<path d="M238.472 164.773C238.233 169.924 237.827 176.414 237.172 184.58C236.486 193.195 235.508 203.662 234.166 216.379C220.033 216.379 205.234 216.116 198.359 216.116C198.942 199.223 199.149 182.104 192.847 148.492C192.768 148.075 192.76 147.643 192.822 147.223C192.884 146.802 193.017 146.4 193.211 146.042C193.405 145.684 193.657 145.377 193.952 145.138C194.246 144.899 194.578 144.734 194.927 144.653C199.036 143.757 203.186 143.168 207.355 142.89C212.739 142.426 218.143 142.426 223.527 142.89C230.464 143.652 238.347 145.591 238.347 145.591C238.347 145.591 239.2 148.692 238.472 164.773Z" fill="#973333"/>
<path opacity="0.2" d="M238.472 164.773C238.233 169.924 237.827 176.414 237.172 184.58C233.366 179.278 229.767 161.021 230.932 154.781C233.769 157.305 236.264 160.342 238.326 163.785C238.39 164.111 238.439 164.44 238.472 164.773Z" fill="black"/>
<path d="M275.174 187.656L282.454 182.754L283.806 191.67C283.806 191.67 277.67 194.508 274.446 192.52L275.174 187.656Z" fill="#FFB573"/>
<path d="M287.269 183.767L287.778 186.681C287.853 187.127 287.817 187.591 287.675 188.013C287.532 188.436 287.29 188.798 286.978 189.056L283.774 191.657L282.422 182.742L284.929 181.991C285.18 181.916 285.441 181.902 285.696 181.952C285.951 182.001 286.196 182.112 286.414 182.278C286.633 182.444 286.822 182.661 286.968 182.917C287.115 183.173 287.217 183.462 287.269 183.767Z" fill="#FFB573"/>
<path d="M231.504 155.919C233.823 161.596 242.33 183.042 246.064 187.994L246.802 188.919L247.166 189.382C247.291 189.532 247.395 189.669 247.593 189.882C248.264 190.648 249.003 191.323 249.798 191.895C251.216 192.88 252.742 193.621 254.332 194.096C257.119 194.873 259.98 195.197 262.839 195.059C268.166 194.803 273.444 193.727 278.543 191.857L277.68 186.656C275.278 186.906 272.761 187.081 270.327 187.131C267.915 187.216 265.502 187.124 263.099 186.856C260.871 186.663 258.671 186.147 256.547 185.318C255.689 184.971 254.876 184.478 254.134 183.855C253.85 183.615 253.588 183.338 253.354 183.029C253.272 182.927 253.196 182.818 253.126 182.704L252.855 182.316L252.304 181.541C249.434 177.215 241.852 156.357 239.574 151.143L231.504 155.919Z" fill="#FFB573"/>
<path d="M275.059 196.534C269.065 200.364 262.054 201.183 255.559 198.81C249.364 196.414 244.137 191.321 240.905 184.53C237.151 177.89 227.157 159.108 228.425 154.256C229.913 148.454 233.074 144.853 238.357 146.416C242.07 147.491 249.153 169.174 252.585 177.84C253.926 180.253 256.505 184.092 259.386 185.268C264.472 187.381 268.216 186.518 273.541 185.555C274.518 186.255 274.445 187.343 274.934 188.556C275.459 189.787 275.743 191.145 275.765 192.528C275.786 193.91 275.545 195.281 275.059 196.534Z" fill="#973333"/>
<path d="M227.261 108.79C225.67 119.068 225.181 123.458 220.272 128.134C212.909 135.162 202.748 130.56 201.76 119.906C200.866 110.315 203.622 95.1097 212.482 92.2461C214.434 91.6024 216.489 91.5692 218.454 92.1496C220.419 92.7301 222.228 93.905 223.709 95.5628C225.189 97.2205 226.293 99.3059 226.915 101.621C227.537 103.936 227.656 106.404 227.261 108.79Z" fill="#FFB573"/>
<path d="M257.608 165.698C255.975 167.936 255.466 169.237 253.188 170.45C250.91 171.663 245.981 170.6 244.41 168.286C244.92 170.087 247.894 173.288 249.454 173.576C247.694 174.737 245.657 175.141 243.679 174.723C241.701 174.305 239.901 173.089 238.576 171.275C238.794 172.403 239.248 173.444 239.896 174.301C240.545 175.157 241.365 175.798 242.278 176.164C222.352 176.789 230.745 165.51 218.265 149.467C204.454 131.711 207.449 117.03 207.449 117.03C207.482 113.374 206.53 109.803 204.734 106.851C202.738 103.775 203.32 99.6238 203.954 97.298C204.88 93.8842 207.698 92.6838 210.402 92.4837C210.881 89.12 216.642 89.7327 217.339 90.2954C218.036 90.8581 218.119 90.7456 218.754 90.2954C220.158 89.2075 223.694 88.0821 227.479 91.7585C229.788 94.0093 232.263 98.0107 232.346 106.614C232.43 115.53 228.883 126.121 241.155 139.663C248.383 147.616 244.92 164.76 257.608 165.698Z" fill="#590000"/>
<path d="M205.806 109.565C204.839 111.214 204.436 113.246 204.682 115.242C205.036 117.88 207.168 118.056 208.718 116.367C210.267 114.679 211.619 111.628 210.475 109.44C209.331 107.252 207.012 107.564 205.806 109.565Z" fill="#FFB573"/>
<path d="M225.108 216.366C225.108 216.366 220.854 288.155 216.07 335.497C214.632 349.706 211.029 363.474 205.442 376.112L182 429.332L169.978 423.642C169.978 423.642 178.298 373.061 194.511 345.476C194.511 345.476 182.385 263.033 198.255 216.116L225.108 216.366Z" fill="#350000"/>
<path opacity="0.2" d="M208.759 233.76C208.759 233.76 212.337 266.272 214.292 285.617C206.96 273.987 201.271 257.756 208.759 233.76Z" fill="black"/>
<path d="M255.465 457.492C255.605 457.305 255.702 457.077 255.746 456.832C255.789 456.586 255.779 456.331 255.715 456.091C255.691 455.938 255.633 455.795 255.547 455.679C255.461 455.562 255.35 455.476 255.226 455.429C254.113 454.978 251.524 457.417 251.233 457.692C251.201 457.725 251.177 457.768 251.164 457.817C251.151 457.866 251.15 457.917 251.16 457.967C251.173 458.013 251.196 458.054 251.228 458.085C251.259 458.116 251.297 458.135 251.337 458.142C252.145 458.29 252.965 458.328 253.781 458.255C254.399 458.242 254.994 457.973 255.465 457.492ZM255.081 455.916C255.136 455.936 255.186 455.975 255.223 456.028C255.26 456.082 255.283 456.147 255.289 456.216C255.334 456.372 255.345 456.54 255.319 456.703C255.294 456.865 255.233 457.017 255.143 457.142C254.727 457.704 253.541 457.904 251.919 457.704C252.98 456.754 254.498 455.666 255.081 455.916Z" fill="#973333"/>
<path d="M251.493 458.104C252.314 457.417 253.781 454.903 253.469 453.715C253.419 453.518 253.315 453.346 253.173 453.23C253.031 453.114 252.86 453.06 252.689 453.078C252.523 453.072 252.358 453.109 252.206 453.187C252.053 453.265 251.916 453.381 251.805 453.528C250.9 454.678 251.139 457.779 251.149 457.917C251.156 457.961 251.17 458.004 251.192 458.04C251.213 458.077 251.242 458.108 251.274 458.13C251.312 458.141 251.351 458.141 251.389 458.13C251.425 458.134 251.461 458.125 251.493 458.104ZM252.678 453.59C252.959 453.59 253.032 453.74 253.063 453.853C253.24 454.591 252.356 456.454 251.555 457.367C251.434 456.162 251.631 454.942 252.117 453.878C252.235 453.72 252.398 453.621 252.574 453.603L252.678 453.59Z" fill="#973333"/>
<path d="M240.781 459.117L249.891 458.067L247.104 433.183L237.993 434.246L240.781 459.117Z" fill="#FFB573"/>
<path d="M250.505 456.754L240.271 457.942C240.095 457.957 239.93 458.05 239.807 458.202C239.685 458.354 239.613 458.555 239.606 458.767L239.231 468.483C239.231 468.73 239.275 468.974 239.359 469.199C239.443 469.424 239.565 469.625 239.719 469.789C239.872 469.953 240.052 470.077 240.248 470.151C240.443 470.226 240.65 470.25 240.854 470.221C244.41 469.746 246.054 469.296 250.609 468.771C253.375 468.446 257.452 468.321 261.279 467.883C265.106 467.445 264.93 462.944 263.359 462.719C256.079 461.731 254.738 459.355 252.138 457.242C251.657 456.856 251.08 456.683 250.505 456.754Z" fill="#590000"/>
<path d="M234.114 216.354C234.114 216.354 245.773 302.023 248.009 352.766L248.435 443.674L239.002 445.888C239.002 445.888 225.347 387.891 223.766 354.367C219.606 265.434 195.509 265.284 210.007 216.191L234.114 216.354Z" fill="#350000"/>
<path d="M251.566 444.049L235.955 446.613L234.364 439.41L251.056 436.797L251.566 444.049Z" fill="#973333"/>
<path d="M167.44 124.445H168.033C167.892 124.445 167.752 124.479 167.622 124.546C167.493 124.613 167.376 124.711 167.278 124.833C167.181 124.956 167.106 125.102 167.057 125.261C167.007 125.42 166.986 125.589 166.993 125.758L167.95 147.529C167.978 147.87 168.11 148.187 168.322 148.418C168.533 148.649 168.808 148.778 169.094 148.779H168.48C168.195 148.775 167.921 148.646 167.711 148.415C167.5 148.185 167.366 147.869 167.336 147.529L166.4 125.758C166.393 125.589 166.415 125.42 166.464 125.261C166.513 125.102 166.588 124.956 166.686 124.833C166.783 124.711 166.9 124.613 167.03 124.546C167.159 124.479 167.299 124.445 167.44 124.445Z" fill="#973333"/>
<path opacity="0.1" d="M167.44 124.445H168.033C167.892 124.445 167.752 124.479 167.622 124.546C167.493 124.613 167.376 124.711 167.278 124.833C167.181 124.956 167.106 125.102 167.057 125.261C167.007 125.42 166.986 125.589 166.993 125.758L167.95 147.529C167.978 147.87 168.11 148.187 168.322 148.418C168.533 148.649 168.808 148.778 169.094 148.779H168.48C168.195 148.775 167.921 148.646 167.711 148.415C167.5 148.185 167.366 147.869 167.336 147.529L166.4 125.758C166.393 125.589 166.415 125.42 166.464 125.261C166.513 125.102 166.588 124.956 166.686 124.833C166.783 124.711 166.9 124.613 167.03 124.546C167.159 124.479 167.299 124.445 167.44 124.445Z" fill="white"/>
<path d="M168.636 148.842H175.916C176.192 148.842 176.456 148.71 176.651 148.476C176.846 148.241 176.956 147.923 176.956 147.591L176.009 125.821C175.991 125.469 175.863 125.139 175.651 124.895C175.439 124.652 175.159 124.514 174.865 124.508H167.585C167.444 124.508 167.305 124.542 167.175 124.609C167.045 124.675 166.928 124.773 166.831 124.896C166.734 125.019 166.658 125.164 166.609 125.323C166.56 125.482 166.538 125.651 166.545 125.821L167.492 147.591C167.522 147.932 167.656 148.247 167.866 148.478C168.077 148.708 168.351 148.838 168.636 148.842Z" fill="#973333"/>
<path opacity="0.4" d="M168.636 148.842H175.916C176.192 148.842 176.456 148.71 176.651 148.476C176.846 148.241 176.956 147.923 176.956 147.591L176.009 125.821C175.991 125.469 175.863 125.139 175.651 124.895C175.439 124.652 175.159 124.514 174.865 124.508H167.585C167.444 124.508 167.305 124.542 167.175 124.609C167.045 124.675 166.928 124.773 166.831 124.896C166.734 125.019 166.658 125.164 166.609 125.323C166.56 125.482 166.538 125.651 166.545 125.821L167.492 147.591C167.522 147.932 167.656 148.247 167.866 148.478C168.077 148.708 168.351 148.838 168.636 148.842Z" fill="white"/>
<path d="M176.519 147.079C176.525 147.188 176.512 147.297 176.482 147.4C176.451 147.504 176.404 147.598 176.342 147.679C176.212 147.832 176.036 147.917 175.854 147.916H168.771C168.573 147.914 168.383 147.82 168.24 147.655C168.098 147.49 168.012 147.266 168.002 147.029L167.076 125.908C167.069 125.801 167.082 125.693 167.112 125.592C167.143 125.49 167.191 125.398 167.253 125.321C167.315 125.24 167.391 125.176 167.475 125.133C167.559 125.09 167.65 125.069 167.742 125.071H174.824C175.022 125.073 175.212 125.167 175.355 125.332C175.498 125.497 175.583 125.721 175.594 125.958L175.656 127.471L176.519 147.079Z" fill="#590000"/>
<g opacity="0.1">
<path d="M175.656 127.471L173.305 147.891H170.487L173.149 125.046H174.824C175.022 125.048 175.212 125.142 175.355 125.307C175.498 125.472 175.583 125.696 175.593 125.933L175.656 127.471Z" fill="white"/>
<path d="M169.468 147.916H168.833L171.496 125.071H172.13L169.468 147.916Z" fill="white"/>
</g>
<path d="M196.061 218.792C190.765 231.34 187.92 245.175 187.741 259.245C205.421 275.738 221.884 256.418 242.122 259.682C241.415 248.691 238.306 228.421 234.624 218.267C221.218 218.955 208.697 217.342 196.061 218.792Z" fill="#973333"/>
<path d="M197.902 214.328C197.902 214.328 196.477 218.742 196.862 218.742H234C234.322 218.742 234.582 218.555 234.603 218.305L234.926 214.553C234.926 214.291 234.666 214.066 234.322 214.066H198.484C198.376 214.048 198.267 214.063 198.165 214.108C198.064 214.154 197.973 214.23 197.902 214.328Z" fill="white"/>
<path d="M203.133 219.167H202.176C201.978 219.167 201.833 219.042 201.843 218.892L202.301 213.89C202.301 213.74 202.477 213.628 202.665 213.628H203.632C203.819 213.628 203.965 213.74 203.954 213.89L203.507 218.892C203.478 218.981 203.426 219.056 203.358 219.105C203.291 219.155 203.211 219.177 203.133 219.167Z" fill="#973333"/>
<path d="M226.387 219.167H225.43C225.243 219.167 225.098 219.042 225.108 218.892L225.555 213.89C225.555 213.74 225.732 213.628 225.93 213.628H226.886C227.074 213.628 227.219 213.74 227.209 213.89L226.762 218.892C226.72 218.992 226.585 219.167 226.387 219.167Z" fill="#973333"/>
</g>
<defs>
<clipPath id="clip0_23068_1846">
<rect width="520" height="480" fill="white"/>
</clipPath>
</defs>
</svg>
